<svg width="104" height="54" viewBox="0 0 104 54" fill="none" xmlns="http://www.w3.org/2000/svg">
<path d="M97 1H7C3.68629 1 1 3.68629 1 7V37C1 40.3137 3.68629 43 7 43H39.9289C40.9898 43 42.0072 43.4214 42.7574 44.1716L49.8787 51.2929C51.0503 52.4645 52.9497 52.4645 54.1213 51.2929L61.2426 44.1716C61.9928 43.4214 63.0102 43 64.0711 43H97C100.314 43 103 40.3137 103 37V7C103 3.68629 100.314 1 97 1Z" fill="#1E88E5" stroke="white" stroke-width="2" stroke-linejoin="round"/>
<path d="M24.6716 21.6C24.6716 20.6387 24.8863 19.78 25.3156 19.024C25.7543 18.2587 26.347 17.666 27.0936 17.246C27.8496 16.8167 28.6943 16.602 29.6276 16.602C30.7196 16.602 31.6763 16.882 32.4976 17.442C33.319 18.002 33.893 18.7767 34.2196 19.766H31.9656C31.7416 19.2993 31.4243 18.9493 31.0136 18.716C30.6123 18.4827 30.1456 18.366 29.6136 18.366C29.0443 18.366 28.5356 18.5013 28.0876 18.772C27.649 19.0333 27.3036 19.4067 27.0516 19.892C26.809 20.3773 26.6876 20.9467 26.6876 21.6C26.6876 22.244 26.809 22.8133 27.0516 23.308C27.3036 23.7933 27.649 24.1713 28.0876 24.442C28.5356 24.7033 29.0443 24.834 29.6136 24.834C30.1456 24.834 30.6123 24.7173 31.0136 24.484C31.4243 24.2413 31.7416 23.8867 31.9656 23.42H34.2196C33.893 24.4187 33.319 25.198 32.4976 25.758C31.6856 26.3087 30.729 26.584 29.6276 26.584C28.6943 26.584 27.8496 26.374 27.0936 25.954C26.347 25.5247 25.7543 24.932 25.3156 24.176C24.8863 23.42 24.6716 22.5613 24.6716 21.6ZM39.3377 26.626C38.5911 26.626 37.9191 26.4627 37.3217 26.136C36.7244 25.8 36.2531 25.3287 35.9077 24.722C35.5717 24.1153 35.4037 23.4153 35.4037 22.622C35.4037 21.8287 35.5764 21.1287 35.9217 20.522C36.2764 19.9153 36.7571 19.4487 37.3637 19.122C37.9704 18.786 38.6471 18.618 39.3937 18.618C40.1404 18.618 40.8171 18.786 41.4237 19.122C42.0304 19.4487 42.5064 19.9153 42.8517 20.522C43.2064 21.1287 43.3837 21.8287 43.3837 22.622C43.3837 23.4153 43.2017 24.1153 42.8377 24.722C42.4831 25.3287 41.9977 25.8 41.3817 26.136C40.7751 26.4627 40.0937 26.626 39.3377 26.626ZM39.3377 24.918C39.6924 24.918 40.0237 24.834 40.3317 24.666C40.6491 24.4887 40.9011 24.2273 41.0877 23.882C41.2744 23.5367 41.3677 23.1167 41.3677 22.622C41.3677 21.8847 41.1717 21.32 40.7797 20.928C40.3971 20.5267 39.9257 20.326 39.3657 20.326C38.8057 20.326 38.3344 20.5267 37.9517 20.928C37.5784 21.32 37.3917 21.8847 37.3917 22.622C37.3917 23.3593 37.5737 23.9287 37.9377 24.33C38.3111 24.722 38.7777 24.918 39.3377 24.918ZM46.7815 19.864C47.0335 19.5093 47.3788 19.2153 47.8175 18.982C48.2655 18.7393 48.7741 18.618 49.3435 18.618C50.0061 18.618 50.6035 18.7813 51.1355 19.108C51.6768 19.4347 52.1015 19.9013 52.4095 20.508C52.7268 21.1053 52.8855 21.8007 52.8855 22.594C52.8855 23.3873 52.7268 24.092 52.4095 24.708C52.1015 25.3147 51.6768 25.786 51.1355 26.122C50.6035 26.458 50.0061 26.626 49.3435 26.626C48.7741 26.626 48.2701 26.5093 47.8315 26.276C47.4021 26.0427 47.0521 25.7487 46.7815 25.394V30.196H44.8215V18.744H46.7815V19.864ZM50.8835 22.594C50.8835 22.1273 50.7855 21.726 50.5895 21.39C50.4028 21.0447 50.1508 20.7833 49.8335 20.606C49.5255 20.4287 49.1895 20.34 48.8255 20.34C48.4708 20.34 48.1348 20.4333 47.8175 20.62C47.5095 20.7973 47.2575 21.0587 47.0615 21.404C46.8748 21.7493 46.7815 22.1553 46.7815 22.622C46.7815 23.0887 46.8748 23.4947 47.0615 23.84C47.2575 24.1853 47.5095 24.4513 47.8175 24.638C48.1348 24.8153 48.4708 24.904 48.8255 24.904C49.1895 24.904 49.5255 24.8107 49.8335 24.624C50.1508 24.4373 50.4028 24.1713 50.5895 23.826C50.7855 23.4807 50.8835 23.07 50.8835 22.594ZM55.3038 17.82C54.9584 17.82 54.6691 17.7127 54.4358 17.498C54.2118 17.274 54.0998 16.9987 54.0998 16.672C54.0998 16.3453 54.2118 16.0747 54.4358 15.86C54.6691 15.636 54.9584 15.524 55.3038 15.524C55.6491 15.524 55.9338 15.636 56.1578 15.86C56.3911 16.0747 56.5078 16.3453 56.5078 16.672C56.5078 16.9987 56.3911 17.274 56.1578 17.498C55.9338 17.7127 55.6491 17.82 55.3038 17.82ZM56.2698 18.744V26.5H54.3098V18.744H56.2698ZM65.4162 22.454C65.4162 22.734 65.3976 22.986 65.3602 23.21H59.6902C59.7369 23.77 59.9329 24.2087 60.2782 24.526C60.6236 24.8433 61.0482 25.002 61.5522 25.002C62.2802 25.002 62.7982 24.6893 63.1062 24.064H65.2202C64.9962 24.8107 64.5669 25.4267 63.9322 25.912C63.2976 26.388 62.5182 26.626 61.5942 26.626C60.8476 26.626 60.1756 26.4627 59.5782 26.136C58.9902 25.8 58.5282 25.3287 58.1922 24.722C57.8656 24.1153 57.7022 23.4153 57.7022 22.622C57.7022 21.8193 57.8656 21.1147 58.1922 20.508C58.5189 19.9013 58.9762 19.4347 59.5642 19.108C60.1522 18.7813 60.8289 18.618 61.5942 18.618C62.3316 18.618 62.9896 18.7767 63.5682 19.094C64.1562 19.4113 64.6089 19.864 64.9262 20.452C65.2529 21.0307 65.4162 21.698 65.4162 22.454ZM63.3862 21.894C63.3769 21.39 63.1949 20.9887 62.8402 20.69C62.4856 20.382 62.0516 20.228 61.5382 20.228C61.0529 20.228 60.6422 20.3773 60.3062 20.676C59.9796 20.9653 59.7789 21.3713 59.7042 21.894H63.3862ZM66.3429 22.594C66.3429 21.81 66.4969 21.1147 66.8049 20.508C67.1222 19.9013 67.5515 19.4347 68.0929 19.108C68.6342 18.7813 69.2362 18.618 69.8989 18.618C70.4029 18.618 70.8835 18.73 71.3409 18.954C71.7982 19.1687 72.1622 19.458 72.4329 19.822V16.14H74.4209V26.5H72.4329V25.352C72.1902 25.7347 71.8495 26.0427 71.4109 26.276C70.9722 26.5093 70.4635 26.626 69.8849 26.626C69.2315 26.626 68.6342 26.458 68.0929 26.122C67.5515 25.786 67.1222 25.3147 66.8049 24.708C66.4969 24.092 66.3429 23.3873 66.3429 22.594ZM72.4469 22.622C72.4469 22.146 72.3535 21.74 72.1669 21.404C71.9802 21.0587 71.7282 20.7973 71.4109 20.62C71.0935 20.4333 70.7529 20.34 70.3889 20.34C70.0249 20.34 69.6889 20.4287 69.3809 20.606C69.0729 20.7833 68.8209 21.0447 68.6249 21.39C68.4382 21.726 68.3449 22.1273 68.3449 22.594C68.3449 23.0607 68.4382 23.4713 68.6249 23.826C68.8209 24.1713 69.0729 24.4373 69.3809 24.624C69.6982 24.8107 70.0342 24.904 70.3889 24.904C70.7529 24.904 71.0935 24.8153 71.4109 24.638C71.7282 24.4513 71.9802 24.19 72.1669 23.854C72.3535 23.5087 72.4469 23.098 72.4469 22.622ZM78.8691 16.56L78.6451 23.322H76.9931L76.7551 16.56H78.8691ZM77.8611 26.598C77.5065 26.598 77.2125 26.4907 76.9791 26.276C76.7551 26.052 76.6431 25.7767 76.6431 25.45C76.6431 25.1233 76.7551 24.8527 76.9791 24.638C77.2125 24.414 77.5065 24.302 77.8611 24.302C78.2065 24.302 78.4911 24.414 78.7151 24.638C78.9391 24.8527 79.0511 25.1233 79.0511 25.45C79.0511 25.7767 78.9391 26.052 78.7151 26.276C78.4911 26.4907 78.2065 26.598 77.8611 26.598Z" fill="white"/>
</svg>
