<svg width="462" height="239" viewBox="0 0 462 239" fill="none" xmlns="http://www.w3.org/2000/svg">
<path d="M9.4 107.53L9.38 107.19M9.38 107.19L9.4 106.84L9.38 107.19ZM9.4 106.84L9.46 106.51L9.4 106.84ZM9.46 106.51L9.56001 106.18L9.46 106.51ZM9.56001 106.18L9.7 105.86L9.56001 106.18ZM9.7 105.86L9.87 105.56L9.7 105.86ZM9.87 105.56L10.07 105.29L9.87 105.56ZM10.07 105.29L10.31 105.04L10.07 105.29ZM10.31 105.04L10.57 104.82L10.31 105.04ZM10.57 104.82L10.86 104.63L10.57 104.82ZM10.86 104.63L11.17 104.47L10.86 104.63ZM11.17 104.47L11.49 104.36L11.17 104.47ZM11.49 104.36L11.82 104.28L11.49 104.36ZM11.82 104.28L12.16 104.24L11.82 104.28ZM12.16 104.24H12.51H12.16ZM12.51 104.24L12.85 104.28L12.51 104.24ZM12.85 104.28L13.18 104.36L12.85 104.28ZM13.18 104.36L13.51 104.47L13.18 104.36ZM13.51 104.47L13.81 104.63L13.51 104.47ZM13.81 104.63L14.1 104.82L13.81 104.63ZM14.1 104.82L14.36 105.04L14.1 104.82ZM14.36 105.04L14.6 105.29L14.36 105.04ZM14.6 105.29L14.8 105.56L14.6 105.29ZM14.8 105.56L14.97 105.86L14.8 105.56ZM14.97 105.86L15.11 106.18L14.97 105.86ZM15.11 106.18L15.21 106.51L15.11 106.18ZM15.21 106.51L15.27 106.84L15.21 106.51ZM15.27 106.84L15.29 107.19L15.27 106.84ZM15.29 107.19L15.27 107.53L15.29 107.19ZM15.27 107.53L15.21 107.87L15.27 107.53ZM15.21 107.87L15.11 108.2L15.21 107.87ZM15.11 108.2L14.97 108.51L15.11 108.2ZM14.97 108.51L14.8 108.81L14.97 108.51ZM14.8 108.81L14.6 109.08L14.8 108.81ZM14.6 109.08L14.36 109.33L14.6 109.08ZM14.36 109.33L14.1 109.56L14.36 109.33ZM14.1 109.56L13.81 109.74L14.1 109.56ZM13.81 109.74L13.51 109.9L13.81 109.74ZM13.51 109.9L13.18 110.02L13.51 109.9ZM13.18 110.02L12.85 110.09L13.18 110.02ZM12.85 110.09L12.51 110.13L12.85 110.09ZM12.51 110.13H12.16H12.51ZM12.16 110.13L11.82 110.09L12.16 110.13ZM11.82 110.09L11.49 110.02L11.82 110.09ZM11.49 110.02L11.17 109.9L11.49 110.02ZM11.17 109.9L10.86 109.74L11.17 109.9ZM10.86 109.74L10.57 109.56L10.86 109.74ZM10.57 109.56L10.31 109.33L10.57 109.56ZM10.31 109.33L10.07 109.08L10.31 109.33ZM10.07 109.08L9.87 108.81L10.07 109.08ZM9.87 108.81L9.7 108.51L9.87 108.81ZM9.7 108.51L9.56001 108.2L9.7 108.51ZM9.56001 108.2L9.46 107.87L9.56001 108.2ZM9.46 107.87L9.4 107.53L9.46 107.87Z" stroke="black" stroke-width="2"/>
<path d="M62.56 107.53L62.54 107.19M62.54 107.19L62.56 106.84L62.54 107.19ZM62.56 106.84L62.62 106.51L62.56 106.84ZM62.62 106.51L62.72 106.18L62.62 106.51ZM62.72 106.18L62.86 105.86L62.72 106.18ZM62.86 105.86L63.03 105.56L62.86 105.86ZM63.03 105.56L63.23 105.29L63.03 105.56ZM63.23 105.29L63.47 105.04L63.23 105.29ZM63.47 105.04L63.73 104.82L63.47 105.04ZM63.73 104.82L64.02 104.63L63.73 104.82ZM64.02 104.63L64.33 104.47L64.02 104.63ZM64.33 104.47L64.65 104.36L64.33 104.47ZM64.65 104.36L64.98 104.28L64.65 104.36ZM64.98 104.28L65.33 104.24L64.98 104.28ZM65.33 104.24H65.67H65.33ZM65.67 104.24L66.01 104.28L65.67 104.24ZM66.01 104.28L66.34 104.36L66.01 104.28ZM66.34 104.36L66.67 104.47L66.34 104.36ZM66.67 104.47L66.97 104.63L66.67 104.47ZM66.97 104.63L67.26 104.82L66.97 104.63ZM67.26 104.82L67.52 105.04L67.26 104.82ZM67.52 105.04L67.76 105.29L67.52 105.04ZM67.76 105.29L67.96 105.56L67.76 105.29ZM67.96 105.56L68.14 105.86L67.96 105.56ZM68.14 105.86L68.27 106.18L68.14 105.86ZM68.27 106.18L68.37 106.51L68.27 106.18ZM68.37 106.51L68.43 106.84L68.37 106.51ZM68.43 106.84L68.45 107.19L68.43 106.84ZM68.45 107.19L68.43 107.53L68.45 107.19ZM68.43 107.53L68.37 107.87L68.43 107.53ZM68.37 107.87L68.27 108.2L68.37 107.87ZM68.27 108.2L68.14 108.51L68.27 108.2ZM68.14 108.51L67.96 108.81L68.14 108.51ZM67.96 108.81L67.76 109.08L67.96 108.81ZM67.76 109.08L67.52 109.33L67.76 109.08ZM67.52 109.33L67.26 109.56L67.52 109.33ZM67.26 109.56L66.97 109.74L67.26 109.56ZM66.97 109.74L66.67 109.9L66.97 109.74ZM66.67 109.9L66.34 110.02L66.67 109.9ZM66.34 110.02L66.01 110.09L66.34 110.02ZM66.01 110.09L65.67 110.13L66.01 110.09ZM65.67 110.13H65.33H65.67ZM65.33 110.13L64.98 110.09L65.33 110.13ZM64.98 110.09L64.65 110.02L64.98 110.09ZM64.65 110.02L64.33 109.9L64.65 110.02ZM64.33 109.9L64.02 109.74L64.33 109.9ZM64.02 109.74L63.73 109.56L64.02 109.74ZM63.73 109.56L63.47 109.33L63.73 109.56ZM63.47 109.33L63.23 109.08L63.47 109.33ZM63.23 109.08L63.03 108.81L63.23 109.08ZM63.03 108.81L62.86 108.51L63.03 108.81ZM62.86 108.51L62.72 108.2L62.86 108.51ZM62.72 108.2L62.62 107.87L62.72 108.2ZM62.62 107.87L62.56 107.53L62.62 107.87Z" stroke="black" stroke-width="2"/>
<path d="M62.56 131.16L62.54 130.81M62.54 130.81L62.56 130.47L62.54 130.81ZM62.56 130.47L62.62 130.13L62.56 130.47ZM62.62 130.13L62.72 129.8L62.62 130.13ZM62.72 129.8L62.86 129.49L62.72 129.8ZM62.86 129.49L63.03 129.19L62.86 129.49ZM63.03 129.19L63.23 128.92L63.03 129.19ZM63.23 128.92L63.47 128.67L63.23 128.92ZM63.47 128.67L63.73 128.44L63.47 128.67ZM63.73 128.44L64.02 128.26L63.73 128.44ZM64.02 128.26L64.33 128.1L64.02 128.26ZM64.33 128.1L64.65 127.98L64.33 128.1ZM64.65 127.98L64.98 127.91L64.65 127.98ZM64.98 127.91L65.33 127.87L64.98 127.91ZM65.33 127.87H65.67H65.33ZM65.67 127.87L66.01 127.91L65.67 127.87ZM66.01 127.91L66.34 127.98L66.01 127.91ZM66.34 127.98L66.67 128.1L66.34 127.98ZM66.67 128.1L66.97 128.26L66.67 128.1ZM66.97 128.26L67.26 128.44L66.97 128.26ZM67.26 128.44L67.52 128.67L67.26 128.44ZM67.52 128.67L67.76 128.92L67.52 128.67ZM67.76 128.92L67.96 129.19L67.76 128.92ZM67.96 129.19L68.14 129.49L67.96 129.19ZM68.14 129.49L68.27 129.8L68.14 129.49ZM68.27 129.8L68.37 130.13L68.27 129.8ZM68.37 130.13L68.43 130.47L68.37 130.13ZM68.43 130.47L68.45 130.81L68.43 130.47ZM68.45 130.81L68.43 131.16L68.45 130.81ZM68.43 131.16L68.37 131.49L68.43 131.16ZM68.37 131.49L68.27 131.82L68.37 131.49ZM68.27 131.82L68.14 132.14L68.27 131.82ZM68.14 132.14L67.96 132.44L68.14 132.14ZM67.96 132.44L67.76 132.71L67.96 132.44ZM67.76 132.71L67.52 132.96L67.76 132.71ZM67.52 132.96L67.26 133.18L67.52 132.96ZM67.26 133.18L66.97 133.37L67.26 133.18ZM66.97 133.37L66.67 133.53L66.97 133.37ZM66.67 133.53L66.34 133.64L66.67 133.53ZM66.34 133.64L66.01 133.72L66.34 133.64ZM66.01 133.72L65.67 133.76L66.01 133.72ZM65.67 133.76H65.33H65.67ZM65.33 133.76L64.98 133.72L65.33 133.76ZM64.98 133.72L64.65 133.64L64.98 133.72ZM64.65 133.64L64.33 133.53L64.65 133.64ZM64.33 133.53L64.02 133.37L64.33 133.53ZM64.02 133.37L63.73 133.18L64.02 133.37ZM63.73 133.18L63.47 132.96L63.73 133.18ZM63.47 132.96L63.23 132.71L63.47 132.96ZM63.23 132.71L63.03 132.44L63.23 132.71ZM63.03 132.44L62.86 132.14L63.03 132.44ZM62.86 132.14L62.72 131.82L62.86 132.14ZM62.72 131.82L62.62 131.49L62.72 131.82ZM62.62 131.49L62.56 131.16L62.62 131.49Z" stroke="black" stroke-width="2"/>
<path d="M100.96 119.34L100.94 119M100.94 119L100.96 118.66L100.94 119ZM100.96 118.66L101.02 118.32L100.96 118.66ZM101.02 118.32L101.12 117.99L101.02 118.32ZM101.12 117.99L101.25 117.67L101.12 117.99ZM101.25 117.67L101.42 117.38L101.25 117.67ZM101.42 117.38L101.63 117.1L101.42 117.38ZM101.63 117.1L101.86 116.85L101.63 117.1ZM101.86 116.85L102.13 116.63L101.86 116.85ZM102.13 116.63L102.41 116.44L102.13 116.63ZM102.41 116.44L102.72 116.29L102.41 116.44ZM102.72 116.29L103.04 116.17L102.72 116.29ZM103.04 116.17L103.38 116.09L103.04 116.17ZM103.38 116.09L103.72 116.05L103.38 116.09ZM103.72 116.05H104.06H103.72ZM104.06 116.05L104.4 116.09L104.06 116.05ZM104.4 116.09L104.74 116.17L104.4 116.09ZM104.74 116.17L105.06 116.29L104.74 116.17ZM105.06 116.29L105.37 116.44L105.06 116.29ZM105.37 116.44L105.65 116.63L105.37 116.44ZM105.65 116.63L105.92 116.85L105.65 116.63ZM105.92 116.85L106.15 117.1L105.92 116.85ZM106.15 117.1L106.36 117.38L106.15 117.1ZM106.36 117.38L106.53 117.67L106.36 117.38ZM106.53 117.67L106.67 117.99L106.53 117.67ZM106.67 117.99L106.77 118.32L106.67 117.99ZM106.77 118.32L106.82 118.66L106.77 118.32ZM106.82 118.66L106.84 119L106.82 118.66ZM106.84 119L106.82 119.34L106.84 119ZM106.82 119.34L106.77 119.68L106.82 119.34ZM106.77 119.68L106.67 120.01L106.77 119.68ZM106.67 120.01L106.53 120.33L106.67 120.01ZM106.53 120.33L106.36 120.62L106.53 120.33ZM106.36 120.62L106.15 120.9L106.36 120.62ZM106.15 120.9L105.92 121.15L106.15 120.9ZM105.92 121.15L105.65 121.37L105.92 121.15ZM105.65 121.37L105.37 121.56L105.65 121.37ZM105.37 121.56L105.06 121.71L105.37 121.56ZM105.06 121.71L104.74 121.83L105.06 121.71ZM104.74 121.83L104.4 121.91L104.74 121.83ZM104.4 121.91L104.06 121.95L104.4 121.91ZM104.06 121.95H103.72H104.06ZM103.72 121.95L103.38 121.91L103.72 121.95ZM103.38 121.91L103.04 121.83L103.38 121.91ZM103.04 121.83L102.72 121.71L103.04 121.83ZM102.72 121.71L102.41 121.56L102.72 121.71ZM102.41 121.56L102.13 121.37L102.41 121.56ZM102.13 121.37L101.86 121.15L102.13 121.37ZM101.86 121.15L101.63 120.9L101.86 121.15ZM101.63 120.9L101.42 120.62L101.63 120.9ZM101.42 120.62L101.25 120.33L101.42 120.62ZM101.25 120.33L101.12 120.01L101.25 120.33ZM101.12 120.01L101.02 119.68L101.12 120.01ZM101.02 119.68L100.96 119.34L101.02 119.68Z" stroke="black" stroke-width="2"/>
<path fill-rule="evenodd" clip-rule="evenodd" d="M100.96 119.34V118.66L100.94 119L100.96 119.34Z" fill="black"/>
<path fill-rule="evenodd" clip-rule="evenodd" d="M100.96 119.34L101.02 119.68L100.96 118.66V119.34Z" fill="black"/>
<path fill-rule="evenodd" clip-rule="evenodd" d="M101.02 119.68V118.32L100.96 118.66L101.02 119.68Z" fill="black"/>
<path fill-rule="evenodd" clip-rule="evenodd" d="M101.02 119.68L101.12 120.01L101.02 118.32V119.68Z" fill="black"/>
<path fill-rule="evenodd" clip-rule="evenodd" d="M101.12 120.01V117.99L101.02 118.32L101.12 120.01Z" fill="black"/>
<path fill-rule="evenodd" clip-rule="evenodd" d="M101.12 120.01L101.25 120.33L101.12 117.99V120.01Z" fill="black"/>
<path fill-rule="evenodd" clip-rule="evenodd" d="M101.25 120.33V117.67L101.12 117.99L101.25 120.33Z" fill="black"/>
<path fill-rule="evenodd" clip-rule="evenodd" d="M101.25 120.33L101.42 120.62L101.25 117.67V120.33Z" fill="black"/>
<path fill-rule="evenodd" clip-rule="evenodd" d="M101.42 120.62V117.38L101.25 117.67L101.42 120.62Z" fill="black"/>
<path fill-rule="evenodd" clip-rule="evenodd" d="M101.42 120.62L101.63 120.9L101.42 117.38V120.62Z" fill="black"/>
<path fill-rule="evenodd" clip-rule="evenodd" d="M101.63 120.9V117.1L101.42 117.38L101.63 120.9Z" fill="black"/>
<path fill-rule="evenodd" clip-rule="evenodd" d="M101.63 120.9L101.86 121.15L101.63 117.1V120.9Z" fill="black"/>
<path fill-rule="evenodd" clip-rule="evenodd" d="M101.86 121.15V116.85L101.63 117.1L101.86 121.15Z" fill="black"/>
<path fill-rule="evenodd" clip-rule="evenodd" d="M101.86 121.15L102.13 121.37L101.86 116.85V121.15Z" fill="black"/>
<path fill-rule="evenodd" clip-rule="evenodd" d="M102.13 121.37V116.63L101.86 116.85L102.13 121.37Z" fill="black"/>
<path fill-rule="evenodd" clip-rule="evenodd" d="M102.13 121.37L102.41 121.56L102.13 116.63V121.37Z" fill="black"/>
<path fill-rule="evenodd" clip-rule="evenodd" d="M102.41 121.56V116.44L102.13 116.63L102.41 121.56Z" fill="black"/>
<path fill-rule="evenodd" clip-rule="evenodd" d="M102.41 121.56L102.72 121.71L102.41 116.44V121.56Z" fill="black"/>
<path fill-rule="evenodd" clip-rule="evenodd" d="M102.72 121.71V116.29L102.41 116.44L102.72 121.71Z" fill="black"/>
<path fill-rule="evenodd" clip-rule="evenodd" d="M102.72 121.71L103.04 121.83L102.72 116.29V121.71Z" fill="black"/>
<path fill-rule="evenodd" clip-rule="evenodd" d="M103.04 121.83V116.17L102.72 116.29L103.04 121.83Z" fill="black"/>
<path fill-rule="evenodd" clip-rule="evenodd" d="M103.04 121.83L103.38 121.91L103.04 116.17V121.83Z" fill="black"/>
<path fill-rule="evenodd" clip-rule="evenodd" d="M103.38 121.91V116.09L103.04 116.17L103.38 121.91Z" fill="black"/>
<path fill-rule="evenodd" clip-rule="evenodd" d="M103.38 121.91L103.72 121.95L103.38 116.09V121.91Z" fill="black"/>
<path fill-rule="evenodd" clip-rule="evenodd" d="M103.72 121.95V116.05L103.38 116.09L103.72 121.95Z" fill="black"/>
<path fill-rule="evenodd" clip-rule="evenodd" d="M103.72 121.95H104.06L103.72 116.05V121.95Z" fill="black"/>
<path fill-rule="evenodd" clip-rule="evenodd" d="M104.06 121.95V116.05H103.72L104.06 121.95Z" fill="black"/>
<path fill-rule="evenodd" clip-rule="evenodd" d="M104.06 121.95L104.4 121.91L104.06 116.05V121.95Z" fill="black"/>
<path fill-rule="evenodd" clip-rule="evenodd" d="M104.4 121.91V116.09L104.06 116.05L104.4 121.91Z" fill="black"/>
<path fill-rule="evenodd" clip-rule="evenodd" d="M104.4 121.91L104.74 121.83L104.4 116.09V121.91Z" fill="black"/>
<path fill-rule="evenodd" clip-rule="evenodd" d="M104.74 121.83V116.17L104.4 116.09L104.74 121.83Z" fill="black"/>
<path fill-rule="evenodd" clip-rule="evenodd" d="M104.74 121.83L105.06 121.71L104.74 116.17V121.83Z" fill="black"/>
<path fill-rule="evenodd" clip-rule="evenodd" d="M105.06 121.71V116.29L104.74 116.17L105.06 121.71Z" fill="black"/>
<path fill-rule="evenodd" clip-rule="evenodd" d="M105.06 121.71L105.37 121.56L105.06 116.29V121.71Z" fill="black"/>
<path fill-rule="evenodd" clip-rule="evenodd" d="M105.37 121.56V116.44L105.06 116.29L105.37 121.56Z" fill="black"/>
<path fill-rule="evenodd" clip-rule="evenodd" d="M105.37 121.56L105.65 121.37L105.37 116.44V121.56Z" fill="black"/>
<path fill-rule="evenodd" clip-rule="evenodd" d="M105.65 121.37V116.63L105.37 116.44L105.65 121.37Z" fill="black"/>
<path fill-rule="evenodd" clip-rule="evenodd" d="M105.65 121.37L105.92 121.15L105.65 116.63V121.37Z" fill="black"/>
<path fill-rule="evenodd" clip-rule="evenodd" d="M105.92 121.15V116.85L105.65 116.63L105.92 121.15Z" fill="black"/>
<path fill-rule="evenodd" clip-rule="evenodd" d="M105.92 121.15L106.15 120.9L105.92 116.85V121.15Z" fill="black"/>
<path fill-rule="evenodd" clip-rule="evenodd" d="M106.15 120.9V117.1L105.92 116.85L106.15 120.9Z" fill="black"/>
<path fill-rule="evenodd" clip-rule="evenodd" d="M106.15 120.9L106.36 120.62L106.15 117.1V120.9Z" fill="black"/>
<path fill-rule="evenodd" clip-rule="evenodd" d="M106.36 120.62V117.38L106.15 117.1L106.36 120.62Z" fill="black"/>
<path fill-rule="evenodd" clip-rule="evenodd" d="M106.36 120.62L106.53 120.33L106.36 117.38V120.62Z" fill="black"/>
<path fill-rule="evenodd" clip-rule="evenodd" d="M106.53 120.33V117.67L106.36 117.38L106.53 120.33Z" fill="black"/>
<path fill-rule="evenodd" clip-rule="evenodd" d="M106.53 120.33L106.67 120.01L106.53 117.67V120.33Z" fill="black"/>
<path fill-rule="evenodd" clip-rule="evenodd" d="M106.67 120.01V117.99L106.53 117.67L106.67 120.01Z" fill="black"/>
<path fill-rule="evenodd" clip-rule="evenodd" d="M106.67 120.01L106.77 119.68L106.67 117.99V120.01Z" fill="black"/>
<path fill-rule="evenodd" clip-rule="evenodd" d="M106.77 119.68V118.32L106.67 117.99L106.77 119.68Z" fill="black"/>
<path fill-rule="evenodd" clip-rule="evenodd" d="M106.77 119.68L106.82 119.34L106.77 118.32V119.68Z" fill="black"/>
<path fill-rule="evenodd" clip-rule="evenodd" d="M106.82 119.34V118.66L106.77 118.32L106.82 119.34Z" fill="black"/>
<path fill-rule="evenodd" clip-rule="evenodd" d="M106.82 119.34L106.84 119L106.82 118.66V119.34Z" fill="black"/>
<path d="M15.29 107.19H62.54" stroke="black" stroke-width="2"/>
<path d="M103.89 119H136.38" stroke="black" stroke-width="2"/>
<path d="M136.38 127.86V110.14M136.38 110.14H183.63H136.38ZM183.63 110.14V127.86V110.14ZM183.63 127.86H136.38H183.63Z" stroke="black" stroke-width="2"/>
<path d="M183.63 119H236.79" stroke="black" stroke-width="2"/>
<path d="M384.47 148.53L236.79 59.9301M236.79 59.9301V237.14V59.9301ZM236.79 237.14L384.47 148.53L236.79 237.14Z" stroke="black" stroke-width="2"/>
<path d="M266.33 119H248.61" stroke="black" stroke-width="2"/>
<path d="M266.33 178.07H248.61" stroke="black" stroke-width="2"/>
<path d="M257.47 169.21V186.93" stroke="black" stroke-width="2"/>
<path d="M236.79 178.07H207.26" stroke="black" stroke-width="2"/>
<path d="M207.26 178.07V237.14" stroke="black" stroke-width="2"/>
<path d="M219.07 237.14H195.45" stroke="black" stroke-width="2"/>
<path d="M65.5 133.77V237.14" stroke="black" stroke-width="2"/>
<path d="M77.3101 237.14H53.6801" stroke="black" stroke-width="2"/>
<path d="M9.4 166.6L9.38 166.25M9.38 166.25L9.4 165.91L9.38 166.25ZM9.4 165.91L9.46 165.57L9.4 165.91ZM9.46 165.57L9.56001 165.24L9.46 165.57ZM9.56001 165.24L9.7 164.93L9.56001 165.24ZM9.7 164.93L9.87 164.63L9.7 164.93ZM9.87 164.63L10.07 164.36L9.87 164.63ZM10.07 164.36L10.31 164.11L10.07 164.36ZM10.31 164.11L10.57 163.89L10.31 164.11ZM10.57 163.89L10.86 163.7L10.57 163.89ZM10.86 163.7L11.17 163.54L10.86 163.7ZM11.17 163.54L11.49 163.43L11.17 163.54ZM11.49 163.43L11.82 163.35L11.49 163.43ZM11.82 163.35L12.16 163.31L11.82 163.35ZM12.16 163.31H12.51H12.16ZM12.51 163.31L12.85 163.35L12.51 163.31ZM12.85 163.35L13.18 163.43L12.85 163.35ZM13.18 163.43L13.51 163.54L13.18 163.43ZM13.51 163.54L13.81 163.7L13.51 163.54ZM13.81 163.7L14.1 163.89L13.81 163.7ZM14.1 163.89L14.36 164.11L14.1 163.89ZM14.36 164.11L14.6 164.36L14.36 164.11ZM14.6 164.36L14.8 164.63L14.6 164.36ZM14.8 164.63L14.97 164.93L14.8 164.63ZM14.97 164.93L15.11 165.24L14.97 164.93ZM15.11 165.24L15.21 165.57L15.11 165.24ZM15.21 165.57L15.27 165.91L15.21 165.57ZM15.27 165.91L15.29 166.25L15.27 165.91ZM15.29 166.25L15.27 166.6L15.29 166.25ZM15.27 166.6L15.21 166.94L15.27 166.6ZM15.21 166.94L15.11 167.26L15.21 166.94ZM15.11 167.26L14.97 167.58L15.11 167.26ZM14.97 167.58L14.8 167.88L14.97 167.58ZM14.8 167.88L14.6 168.15L14.8 167.88ZM14.6 168.15L14.36 168.4L14.6 168.15ZM14.36 168.4L14.1 168.62L14.36 168.4ZM14.1 168.62L13.81 168.81L14.1 168.62ZM13.81 168.81L13.51 168.97L13.81 168.81ZM13.51 168.97L13.18 169.08L13.51 168.97ZM13.18 169.08L12.85 169.16L13.18 169.08ZM12.85 169.16L12.51 169.2L12.85 169.16ZM12.51 169.2H12.16H12.51ZM12.16 169.2L11.82 169.16L12.16 169.2ZM11.82 169.16L11.49 169.08L11.82 169.16ZM11.49 169.08L11.17 168.97L11.49 169.08ZM11.17 168.97L10.86 168.81L11.17 168.97ZM10.86 168.81L10.57 168.62L10.86 168.81ZM10.57 168.62L10.31 168.4L10.57 168.62ZM10.31 168.4L10.07 168.15L10.31 168.4ZM10.07 168.15L9.87 167.88L10.07 168.15ZM9.87 167.88L9.7 167.58L9.87 167.88ZM9.7 167.58L9.56001 167.26L9.7 167.58ZM9.56001 167.26L9.46 166.94L9.56001 167.26ZM9.46 166.94L9.4 166.6L9.46 166.94Z" stroke="black" stroke-width="2"/>
<path d="M12.34 169.21V237.14" stroke="black" stroke-width="2"/>
<path d="M24.15 237.14H0.52002" stroke="black" stroke-width="2"/>
<path d="M12.34 119V154.44" stroke="black" stroke-width="1.5"/>
<path d="M12.34 154.44L15.29 139.67" stroke="black" stroke-width="1.5"/>
<path d="M9.38 139.67L12.34 154.44" stroke="black" stroke-width="1.5"/>
<path d="M443.53 160.35V195.79" stroke="black" stroke-width="1.5"/>
<path d="M443.53 195.79L446.49 181.02" stroke="black" stroke-width="1.5"/>
<path d="M440.58 181.02L443.53 195.79" stroke="black" stroke-width="1.5"/>
<path d="M384.47 148.53H440.58" stroke="black" stroke-width="2"/>
<path d="M440.6 148.88L440.58 148.53M440.58 148.53L440.6 148.19L440.58 148.53ZM440.6 148.19L440.66 147.85L440.6 148.19ZM440.66 147.85L440.76 147.52L440.66 147.85ZM440.76 147.52L440.89 147.21L440.76 147.52ZM440.89 147.21L441.07 146.91L440.89 147.21ZM441.07 146.91L441.27 146.64L441.07 146.91ZM441.27 146.64L441.51 146.39L441.27 146.64ZM441.51 146.39L441.77 146.17L441.51 146.39ZM441.77 146.17L442.06 145.98L441.77 146.17ZM442.06 145.98L442.36 145.82L442.06 145.98ZM442.36 145.82L442.69 145.7L442.36 145.82ZM442.69 145.7L443.02 145.63L442.69 145.7ZM443.02 145.63L443.36 145.59L443.02 145.63ZM443.36 145.59H443.71H443.36ZM443.71 145.59L444.05 145.63L443.71 145.59ZM444.05 145.63L444.38 145.7L444.05 145.63ZM444.38 145.7L444.7 145.82L444.38 145.7ZM444.7 145.82L445.01 145.98L444.7 145.82ZM445.01 145.98L445.3 146.17L445.01 145.98ZM445.3 146.17L445.56 146.39L445.3 146.17ZM445.56 146.39L445.8 146.64L445.56 146.39ZM445.8 146.64L446 146.91L445.8 146.64ZM446 146.91L446.17 147.21L446 146.91ZM446.17 147.21L446.31 147.52L446.17 147.21ZM446.31 147.52L446.41 147.85L446.31 147.52ZM446.41 147.85L446.47 148.19L446.41 147.85ZM446.47 148.19L446.49 148.53L446.47 148.19ZM446.49 148.53L446.47 148.88L446.49 148.53ZM446.47 148.88L446.41 149.22L446.47 148.88ZM446.41 149.22L446.31 149.54L446.41 149.22ZM446.31 149.54L446.17 149.86L446.31 149.54ZM446.17 149.86L446 150.16L446.17 149.86ZM446 150.16L445.8 150.43L446 150.16ZM445.8 150.43L445.56 150.68L445.8 150.43ZM445.56 150.68L445.3 150.9L445.56 150.68ZM445.3 150.9L445.01 151.09L445.3 150.9ZM445.01 151.09L444.7 151.25L445.01 151.09ZM444.7 151.25L444.38 151.36L444.7 151.25ZM444.38 151.36L444.05 151.44L444.38 151.36ZM444.05 151.44L443.71 151.48L444.05 151.44ZM443.71 151.48H443.36H443.71ZM443.36 151.48L443.02 151.44L443.36 151.48ZM443.02 151.44L442.69 151.36L443.02 151.44ZM442.69 151.36L442.36 151.25L442.69 151.36ZM442.36 151.25L442.06 151.09L442.36 151.25ZM442.06 151.09L441.77 150.9L442.06 151.09ZM441.77 150.9L441.51 150.68L441.77 150.9ZM441.51 150.68L441.27 150.43L441.51 150.68ZM441.27 150.43L441.07 150.16L441.27 150.43ZM441.07 150.16L440.89 149.86L441.07 150.16ZM440.89 149.86L440.76 149.54L440.89 149.86ZM440.76 149.54L440.66 149.22L440.76 149.54ZM440.66 149.22L440.6 148.88L440.66 149.22Z" stroke="black" stroke-width="2"/>
<path d="M440.6 207.95L440.58 207.6M440.58 207.6L440.6 207.26L440.58 207.6ZM440.6 207.26L440.66 206.92L440.6 207.26ZM440.66 206.92L440.76 206.59L440.66 206.92ZM440.76 206.59L440.89 206.28L440.76 206.59ZM440.89 206.28L441.07 205.98L440.89 206.28ZM441.07 205.98L441.27 205.7L441.07 205.98ZM441.27 205.7L441.51 205.45L441.27 205.7ZM441.51 205.45L441.77 205.23L441.51 205.45ZM441.77 205.23L442.06 205.04L441.77 205.23ZM442.06 205.04L442.36 204.89L442.06 205.04ZM442.36 204.89L442.69 204.77L442.36 204.89ZM442.69 204.77L443.02 204.69L442.69 204.77ZM443.02 204.69L443.36 204.65L443.02 204.69ZM443.36 204.65H443.71H443.36ZM443.71 204.65L444.05 204.69L443.71 204.65ZM444.05 204.69L444.38 204.77L444.05 204.69ZM444.38 204.77L444.7 204.89L444.38 204.77ZM444.7 204.89L445.01 205.04L444.7 204.89ZM445.01 205.04L445.3 205.23L445.01 205.04ZM445.3 205.23L445.56 205.45L445.3 205.23ZM445.56 205.45L445.8 205.7L445.56 205.45ZM445.8 205.7L446 205.98L445.8 205.7ZM446 205.98L446.17 206.28L446 205.98ZM446.17 206.28L446.31 206.59L446.17 206.28ZM446.31 206.59L446.41 206.92L446.31 206.59ZM446.41 206.92L446.47 207.26L446.41 206.92ZM446.47 207.26L446.49 207.6L446.47 207.26ZM446.49 207.6L446.47 207.95L446.49 207.6ZM446.47 207.95L446.41 208.28L446.47 207.95ZM446.41 208.28L446.31 208.61L446.41 208.28ZM446.31 208.61L446.17 208.93L446.31 208.61ZM446.17 208.93L446 209.23L446.17 208.93ZM446 209.23L445.8 209.5L446 209.23ZM445.8 209.5L445.56 209.75L445.8 209.5ZM445.56 209.75L445.3 209.97L445.56 209.75ZM445.3 209.97L445.01 210.16L445.3 209.97ZM445.01 210.16L444.7 210.31L445.01 210.16ZM444.7 210.31L444.38 210.43L444.7 210.31ZM444.38 210.43L444.05 210.51L444.38 210.43ZM444.05 210.51L443.71 210.55L444.05 210.51ZM443.71 210.55H443.36H443.71ZM443.36 210.55L443.02 210.51L443.36 210.55ZM443.02 210.51L442.69 210.43L443.02 210.51ZM442.69 210.43L442.36 210.31L442.69 210.43ZM442.36 210.31L442.06 210.16L442.36 210.31ZM442.06 210.16L441.77 209.97L442.06 210.16ZM441.77 209.97L441.51 209.75L441.77 209.97ZM441.51 209.75L441.27 209.5L441.51 209.75ZM441.27 209.5L441.07 209.23L441.27 209.5ZM441.07 209.23L440.89 208.93L441.07 209.23ZM440.89 208.93L440.76 208.61L440.89 208.93ZM440.76 208.61L440.66 208.28L440.76 208.61ZM440.66 208.28L440.6 207.95L440.66 208.28Z" stroke="black" stroke-width="2"/>
<path d="M443.53 210.56V237.14" stroke="black" stroke-width="2"/>
<path d="M455.35 237.14H431.72" stroke="black" stroke-width="2"/>
<path d="M307.68 42.21V18.58" stroke="black" stroke-width="2"/>
<path d="M313.58 42.21V18.58" stroke="black" stroke-width="2"/>
<path d="M307.68 30.4H207.26" stroke="black" stroke-width="2"/>
<path d="M207.26 30.4V119" stroke="black" stroke-width="2"/>
<path d="M313.58 30.4H414" stroke="black" stroke-width="2"/>
<path d="M414 30.4V148.53" stroke="black" stroke-width="2"/>
<path fill-rule="evenodd" clip-rule="evenodd" d="M27.34 131.2H34.65L34.51 131.67L33.94 131.68L33.14 131.78L32.9 131.88L32.66 131.97L32.25 132.3L32.08 132.54L31.91 132.78L31.56 133.66L31.37 134.3L29.47 140.77L29.21 141.63L28.91 142.77L28.86 143.04L28.79 143.41L28.71 144.1V144.42V145.12L29.3 146.31L29.9 146.8L30.5 147.29L32.09 147.77H33.1H33.75L34.91 147.53L35.42 147.29L35.92 147.05L36.78 146.38L37.14 145.95L37.49 145.52L38.15 144.35L38.44 143.62L38.74 142.88L39.26 141.39L39.48 140.63L40.99 135.34L41.28 134.35L41.57 133.05V132.75V132.54L41.37 132.18L41.18 132.03L40.98 131.88L40.19 131.7L39.6 131.67L39.74 131.2H45.24L45.1 131.67H44.61L43.91 131.76L43.7 131.85L43.49 131.95L43.11 132.28L42.95 132.52L42.79 132.76L42.43 133.7L42.24 134.4L40.29 141.15L39.82 142.79L38.98 145.11L38.61 145.78L38.24 146.45L37.1 147.57L36.33 148.02L35.56 148.47L33.64 148.92H32.5H31.19L29.07 148.19L28.26 147.45L27.46 146.71L26.65 145.02V144.07V143.69L26.72 142.89L26.8 142.46L26.85 142.18L27.1 141.21L27.3 140.52L29.05 134.62L29.23 133.98L29.41 133.04V132.74V132.5L29.22 132.14L29.04 132L28.86 131.87L27.94 131.7L27.21 131.67L27.34 131.2Z" fill="black"/>
<path fill-rule="evenodd" clip-rule="evenodd" d="M41.02 150.58L40.99 150.84L40.96 151.26V151.43V151.88L41.29 152.66L41.62 152.98L41.95 153.3L42.74 153.62H43.21H43.59L44.31 153.47L44.66 153.32L45 153.17L46.03 152.5L46.71 151.98L46.93 152.28L45.71 153.48L43.4 154.68H42.3H41.55L40.42 154.21L40.04 153.74L39.67 153.27L39.29 152.23V151.67V150.91L39.76 149.35L40.23 148.55L40.7 147.75L41.88 146.51L42.59 146.07L43.3 145.63L44.77 145.19H45.52H46.06L46.86 145.41L47.12 145.63L47.38 145.85L47.64 146.37V146.67V147.09L47.3 147.91L46.96 148.29L46.51 148.8L45.17 149.62L44.3 149.93L43.71 150.14L42.07 150.46L41.02 150.58ZM41.09 150.08L41.87 150L43.13 149.7L43.62 149.49L44.26 149.21L45.23 148.54L45.55 148.15L45.88 147.76L46.2 147.01V146.66V146.45L46.06 146.1L45.92 145.97L45.78 145.83L45.38 145.7H45.13H44.59L43.46 146.25L42.86 146.81L42.26 147.36L41.37 149L41.09 150.08Z" fill="black"/>
<path fill-rule="evenodd" clip-rule="evenodd" d="M411.28 166.64H418.59L418.45 167.11L417.89 167.12L417.09 167.23L416.85 167.32L416.61 167.41L416.2 167.74L416.03 167.98L415.86 168.22L415.5 169.1L415.32 169.74L413.41 176.21L413.16 177.08L412.85 178.21L412.81 178.48L412.73 178.85L412.65 179.54V179.86V180.57L413.25 181.76L413.84 182.24L414.44 182.73L416.04 183.21H417.04H417.7L418.86 182.97L419.36 182.73L419.86 182.49L420.72 181.82L421.08 181.39L421.44 180.96L422.09 179.79L422.39 179.06L422.69 178.32L423.2 176.83L423.42 176.07L424.94 170.78L425.23 169.79L425.51 168.49V168.19V167.98L425.32 167.62L425.12 167.47L424.93 167.32L424.14 167.14L423.54 167.11L423.69 166.64H429.18L429.04 167.11H428.56L427.86 167.2L427.64 167.29L427.43 167.39L427.06 167.72L426.9 167.96L426.74 168.21L426.38 169.14L426.18 169.84L424.23 176.59L423.76 178.23L422.92 180.55L422.55 181.22L422.18 181.89L421.04 183.01L420.27 183.46L419.5 183.91L417.59 184.37H416.45H415.13L413.01 183.63L412.21 182.89L411.4 182.15L410.6 180.46V179.51V179.14L410.67 178.33L410.74 177.9L410.79 177.62L411.05 176.65L411.25 175.96L412.99 170.06L413.17 169.42L413.35 168.48V168.18V167.94L413.17 167.58L412.99 167.45L412.8 167.31L411.89 167.14L411.15 167.11L411.28 166.64Z" fill="black"/>
<path fill-rule="evenodd" clip-rule="evenodd" d="M432.91 180.77L430.93 187.71L430.71 188.63L430.69 188.7L430.67 188.82V188.86V188.94L430.71 189.07L430.74 189.12L430.77 189.16L430.85 189.2H430.89H430.93L431.06 189.13L431.13 189.06L431.27 188.92L431.65 188.32L431.88 187.85L432.23 188.1L431.93 188.61L431.32 189.38L431.01 189.63L430.69 189.87L430.11 190.12H429.84H429.66L429.37 190.01L429.27 189.9L429.17 189.79L429.07 189.48V189.27V189.02L429.18 188.36L429.29 187.95L429.51 187.19L428.78 188.06L427.43 189.28L426.82 189.62L426.37 189.87L425.51 190.12H425.08H424.67L423.97 189.82L423.67 189.51L423.37 189.21L423.07 188.37V187.84V187.04L423.6 185.35L424.13 184.46L424.65 183.57L425.99 182.15L426.8 181.62L427.44 181.19L428.63 180.77H429.19H429.53L430.09 180.92L430.31 181.07L430.54 181.22L430.88 181.71L430.99 182.06L431.33 181.01L432.91 180.77ZM429.15 181.3H428.8L428.04 181.6L427.65 181.9L427.08 182.33L426.07 183.59L425.63 184.43L425.19 185.26L424.75 186.78V187.46V187.8L424.95 188.34L425.14 188.54L425.34 188.73L425.79 188.93H426.04H426.67L428.04 188.12L428.77 187.32L429.67 186.24L430.55 184.04L430.52 182.91V182.49L430.34 181.87L430.15 181.68L429.97 181.49L429.47 181.3H429.15Z" fill="black"/>
<path fill-rule="evenodd" clip-rule="evenodd" d="M337.9 36.3L336.61 41.91H336.13L336.08 40.5L336.05 40.12L335.9 39.44L335.78 39.14L335.67 38.84L335.32 38.32L335.09 38.1L334.85 37.87L334.27 37.53L333.92 37.4001L333.56 37.28L332.78 37.16H332.34H331.19L329.18 37.78L328.32 38.41L327.22 39.21L325.49 41.46L324.87 42.92L324.35 44.1201L323.84 46.5501V47.78V49.0401L324.58 51.0501L325.32 51.8001L326.06 52.5501L327.99 53.3001H329.18H330.08L331.67 52.9001L332.37 52.5101L333.07 52.1101L334.37 50.89L334.97 50.07H335.58L334.88 51.1901L333.32 52.8301L332.46 53.3601L331.6 53.89L329.55 54.42H328.36H327.29L325.41 53.9701L324.6 53.53L323.78 53.0801L322.53 51.84L322.1 51.03L321.68 50.2301L321.25 48.5V47.57V46.1501L322.01 43.39L322.77 42.05L323.53 40.71L325.61 38.6L326.94 37.84L328.27 37.07L330.94 36.3H332.29H332.92L334.34 36.6L335.12 36.9001L335.47 37.03L335.97 37.16H336.12H336.27L336.54 37.09L336.66 37.03L336.77 36.9701L337.16 36.6L337.42 36.3H337.9Z" fill="black"/>
<path fill-rule="evenodd" clip-rule="evenodd" d="M163.38 105.47L160.62 97.05L160.14 97.06L159.16 96.96L158.66 96.86L157.1 102.35L156.95 102.82L156.8 103.61V103.94V104.18L156.99 104.57L157.17 104.71L157.31 104.81L158.08 104.97L158.71 105.01L158.59 105.47H151.95L152.09 105.01L152.57 104.99L153.21 104.9L153.37 104.82L153.64 104.71L154.02 104.42L154.14 104.23L154.34 103.93L154.77 102.86L155 102.1L158.01 91.62L158.16 91.1L158.32 90.29V90V89.7L158.08 89.21L157.84 89L157.6 88.8L156.91 88.6H156.46L156.61 88.14H162.27H163.7L165.74 88.68L166.37 89.22L167 89.75L167.63 91.16V92.04V92.87L166.98 94.4L166.34 95.09L165.7 95.78L163.93 96.66L162.81 96.85L164.48 101.92L164.78 102.86L165.4 104.09L165.7 104.37L166.01 104.65L167 104.97L167.68 105.01L167.54 105.47H163.38ZM158.89 96.13L159.29 96.19L160.01 96.25H160.33H161.42L163.14 95.64L163.77 95.03L164.4 94.41L165.04 92.89V91.98V91.27L164.64 90.18L164.24 89.8L163.84 89.43L162.65 89.05H161.86H161.65L161.17 89.1L160.89 89.15L158.89 96.13Z" fill="black"/>
<path d="M68.4255 130.2L103.914 118.976" stroke="black" stroke-width="2.5"/>
<path d="M205.51 119.26L205.49 119M205.49 119L205.51 118.74L205.49 119ZM205.51 118.74L205.57 118.48L205.51 118.74ZM205.57 118.48L205.66 118.23L205.57 118.48ZM205.66 118.23L205.8 118L205.66 118.23ZM205.8 118L205.96 117.79L205.8 118ZM205.96 117.79L206.16 117.61L205.96 117.79ZM206.16 117.61L206.37 117.47L206.16 117.61ZM206.37 117.47L206.61 117.35L206.37 117.47ZM206.61 117.35L206.87 117.27L206.61 117.35ZM206.87 117.27L207.13 117.23L206.87 117.27ZM207.13 117.23H207.39H207.13ZM207.39 117.23L207.66 117.27L207.39 117.23ZM207.66 117.27L207.91 117.35L207.66 117.27ZM207.91 117.35L208.15 117.47L207.91 117.35ZM208.15 117.47L208.37 117.61L208.15 117.47ZM208.37 117.61L208.56 117.79L208.37 117.61ZM208.56 117.79L208.72 118L208.56 117.79ZM208.72 118L208.86 118.23L208.72 118ZM208.86 118.23L208.95 118.48L208.86 118.23ZM208.95 118.48L209.01 118.74L208.95 118.48ZM209.01 118.74L209.03 119L209.01 118.74ZM209.03 119L209.01 119.26L209.03 119ZM209.01 119.26L208.95 119.52L209.01 119.26ZM208.95 119.52L208.86 119.77L208.95 119.52ZM208.86 119.77L208.72 120L208.86 119.77ZM208.72 120L208.56 120.21L208.72 120ZM208.56 120.21L208.37 120.39L208.56 120.21ZM208.37 120.39L208.15 120.53L208.37 120.39ZM208.15 120.53L207.91 120.65L208.15 120.53ZM207.91 120.65L207.66 120.73L207.91 120.65ZM207.66 120.73L207.39 120.77L207.66 120.73ZM207.39 120.77H207.13H207.39ZM207.13 120.77L206.87 120.73L207.13 120.77ZM206.87 120.73L206.61 120.65L206.87 120.73ZM206.61 120.65L206.37 120.53L206.61 120.65ZM206.37 120.53L206.16 120.39L206.37 120.53ZM206.16 120.39L205.96 120.21L206.16 120.39ZM205.96 120.21L205.8 120L205.96 120.21ZM205.8 120L205.66 119.77L205.8 120ZM205.66 119.77L205.57 119.52L205.66 119.77ZM205.57 119.52L205.51 119.26L205.57 119.52Z" stroke="black" stroke-width="2"/>
<path d="M412.25 148.8L412.23 148.53M412.23 148.53L412.25 148.27L412.23 148.53ZM412.25 148.27L412.31 148.01L412.25 148.27ZM412.31 148.01L412.4 147.77L412.31 148.01ZM412.4 147.77L412.54 147.54L412.4 147.77ZM412.54 147.54L412.7 147.33L412.54 147.54ZM412.7 147.33L412.9 147.15L412.7 147.33ZM412.9 147.15L413.11 147L412.9 147.15ZM413.11 147L413.35 146.88L413.11 147ZM413.35 146.88L413.61 146.81L413.35 146.88ZM413.61 146.81L413.87 146.77L413.61 146.81ZM413.87 146.77H414.13H413.87ZM414.13 146.77L414.39 146.81L414.13 146.77ZM414.39 146.81L414.65 146.88L414.39 146.81ZM414.65 146.88L414.89 147L414.65 146.88ZM414.89 147L415.1 147.15L414.89 147ZM415.1 147.15L415.3 147.33L415.1 147.15ZM415.3 147.33L415.46 147.54L415.3 147.33ZM415.46 147.54L415.6 147.77L415.46 147.54ZM415.6 147.77L415.69 148.01L415.6 147.77ZM415.69 148.01L415.75 148.27L415.69 148.01ZM415.75 148.27L415.77 148.53L415.75 148.27ZM415.77 148.53L415.75 148.8L415.77 148.53ZM415.75 148.8L415.69 149.06L415.75 148.8ZM415.69 149.06L415.6 149.3L415.69 149.06ZM415.6 149.3L415.46 149.53L415.6 149.3ZM415.46 149.53L415.3 149.74L415.46 149.53ZM415.3 149.74L415.1 149.92L415.3 149.74ZM415.1 149.92L414.89 150.07L415.1 149.92ZM414.89 150.07L414.65 150.18L414.89 150.07ZM414.65 150.18L414.39 150.26L414.65 150.18ZM414.39 150.26L414.13 150.3L414.39 150.26ZM414.13 150.3H413.87H414.13ZM413.87 150.3L413.61 150.26L413.87 150.3ZM413.61 150.26L413.35 150.18L413.61 150.26ZM413.35 150.18L413.11 150.07L413.35 150.18ZM413.11 150.07L412.9 149.92L413.11 150.07ZM412.9 149.92L412.7 149.74L412.9 149.92ZM412.7 149.74L412.54 149.53L412.7 149.74ZM412.54 149.53L412.4 149.3L412.54 149.53ZM412.4 149.3L412.31 149.06L412.4 149.3ZM412.31 149.06L412.25 148.8L412.31 149.06Z" stroke="black" stroke-width="2"/>
<path fill-rule="evenodd" clip-rule="evenodd" d="M172.99 143.02H180.3L180.16 143.48L179.59 143.49L178.79 143.6L178.55 143.69L178.31 143.78L177.9 144.12L177.73 144.35L177.56 144.59L177.21 145.47L177.02 146.11L175.12 152.59L174.86 153.45L174.56 154.58L174.51 154.85L174.44 155.22L174.36 155.91V156.23V156.94L174.95 158.13L175.55 158.61L176.15 159.1L177.74 159.59H178.75H179.4L180.56 159.35L181.07 159.11L181.57 158.87L182.43 158.2L182.79 157.77L183.14 157.34L183.8 156.17L184.09 155.43L184.39 154.69L184.91 153.2L185.13 152.45L186.64 147.15L186.93 146.16L187.22 144.87V144.57V144.36L187.02 143.99L186.83 143.84L186.63 143.69L185.84 143.51L185.25 143.48L185.39 143.02H190.89L190.75 143.48H190.26L189.56 143.57L189.35 143.67L189.14 143.76L188.76 144.09L188.6 144.34L188.44 144.58L188.08 145.52L187.89 146.21L185.94 152.96L185.47 154.61L184.63 156.92L184.26 157.59L183.89 158.26L182.74 159.38L181.97 159.83L181.2 160.29L179.29 160.74H178.15H176.84L174.72 160L173.91 159.26L173.11 158.53L172.3 156.84V155.88V155.51L172.37 154.7L172.44 154.28L172.5 153.99L172.75 153.02L172.95 152.33L174.7 146.43L174.88 145.79L175.06 144.85V144.55V144.32L174.87 143.95L174.69 143.82L174.51 143.69L173.59 143.52L172.86 143.48L172.99 143.02Z" fill="black"/>
<path fill-rule="evenodd" clip-rule="evenodd" d="M199.25 151.6L195.66 163.92L195.52 164.42L195.37 165.08V165.24V165.28L195.4 165.37L195.43 165.41L195.46 165.45L195.52 165.49H195.55H195.59L195.7 165.43L195.76 165.37L195.88 165.26L196.27 164.65L196.54 164.16L196.89 164.38L196.59 164.88L195.98 165.66L195.68 165.94L195.37 166.22L194.8 166.5H194.53H194.39L194.14 166.37L194.04 166.25L193.93 166.13L193.82 165.78V165.56V165.27L193.98 164.48L194.13 163.99L194.53 162.7L193.71 163.85L192.22 165.45L191.55 165.89L191.08 166.19L190.2 166.5H189.77H189.34L188.59 166.15L188.27 165.81L187.95 165.46L187.63 164.52V163.93V163.17L188.16 161.54L188.69 160.68L189.21 159.82L190.61 158.41L191.47 157.87L192.15 157.44L193.41 157H193.98H194.28L194.79 157.12L195.01 157.23L195.22 157.34L195.65 157.72L195.86 157.98L196.84 154.59L196.92 154.3L197.05 153.85L197.1 153.68L197.16 153.47L197.22 153.13V153V152.89L197.14 152.71L197.07 152.64L196.96 152.55L196.68 152.46H196.51H196.4L196.01 152.5L195.74 152.53V152.16L199.25 151.6ZM195.3 158.97V158.64L195.09 158.11L194.88 157.91L194.68 157.71L194.14 157.51H193.82H193.11L191.62 158.58L190.85 159.64L190.08 160.71L189.31 162.74V163.71V164.1L189.51 164.68L189.7 164.89L189.9 165.09L190.37 165.29H190.65H191.27L192.75 164.14L193.6 162.99L194.45 161.84L195.3 159.83V158.97Z" fill="black"/>
<path d="M207.26 169.21V130.81" stroke="black" stroke-width="1.5"/>
<path d="M207.26 130.81L204.31 145.58" stroke="black" stroke-width="1.5"/>
<path d="M210.21 145.58L207.26 130.81" stroke="black" stroke-width="1.5"/>
</svg>
