<svg width="1440" height="300" viewBox="0 0 1440 300" fill="none" xmlns="http://www.w3.org/2000/svg">
<rect width="1440" height="300" rx="150" fill="#FFC439"/>
<path d="M426.445 203.05C418.745 203.05 411.845 201.8 405.745 199.3C399.645 196.8 394.745 193.1 391.045 188.2C387.445 183.3 385.545 177.4 385.345 170.5H412.645C413.045 174.4 414.395 177.4 416.695 179.5C418.995 181.5 421.995 182.5 425.695 182.5C429.495 182.5 432.495 181.65 434.695 179.95C436.895 178.15 437.995 175.7 437.995 172.6C437.995 170 437.095 167.85 435.295 166.15C433.595 164.45 431.445 163.05 428.845 161.95C426.345 160.85 422.745 159.6 418.045 158.2C411.245 156.1 405.695 154 401.395 151.9C397.095 149.8 393.395 146.7 390.295 142.6C387.195 138.5 385.645 133.15 385.645 126.55C385.645 116.75 389.195 109.1 396.295 103.6C403.395 98 412.645 95.2 424.045 95.2C435.645 95.2 444.995 98 452.095 103.6C459.195 109.1 462.995 116.8 463.495 126.7H435.745C435.545 123.3 434.295 120.65 431.995 118.75C429.695 116.75 426.745 115.75 423.145 115.75C420.045 115.75 417.545 116.6 415.645 118.3C413.745 119.9 412.795 122.25 412.795 125.35C412.795 128.75 414.395 131.4 417.595 133.3C420.795 135.2 425.795 137.25 432.595 139.45C439.395 141.75 444.895 143.95 449.095 146.05C453.395 148.15 457.095 151.2 460.195 155.2C463.295 159.2 464.845 164.35 464.845 170.65C464.845 176.65 463.295 182.1 460.195 187C457.195 191.9 452.795 195.8 446.995 198.7C441.195 201.6 434.345 203.05 426.445 203.05ZM506.28 130.15C508.78 126.25 512.23 123.1 516.63 120.7C521.03 118.3 526.18 117.1 532.08 117.1C538.98 117.1 545.23 118.85 550.83 122.35C556.43 125.85 560.83 130.85 564.03 137.35C567.33 143.85 568.98 151.4 568.98 160C568.98 168.6 567.33 176.2 564.03 182.8C560.83 189.3 556.43 194.35 550.83 197.95C545.23 201.45 538.98 203.2 532.08 203.2C526.28 203.2 521.13 202 516.63 199.6C512.23 197.2 508.78 194.1 506.28 190.3V241.9H480.63V118.3H506.28V130.15ZM542.88 160C542.88 153.6 541.08 148.6 537.48 145C533.98 141.3 529.63 139.45 524.43 139.45C519.33 139.45 514.98 141.3 511.38 145C507.88 148.7 506.13 153.75 506.13 160.15C506.13 166.55 507.88 171.6 511.38 175.3C514.98 179 519.33 180.85 524.43 180.85C529.53 180.85 533.88 179 537.48 175.3C541.08 171.5 542.88 166.4 542.88 160ZM661.337 158.8C661.337 161.2 661.187 163.7 660.887 166.3H602.837C603.237 171.5 604.887 175.5 607.787 178.3C610.787 181 614.437 182.35 618.737 182.35C625.137 182.35 629.587 179.65 632.087 174.25H659.387C657.987 179.75 655.437 184.7 651.737 189.1C648.137 193.5 643.587 196.95 638.087 199.45C632.587 201.95 626.437 203.2 619.637 203.2C611.437 203.2 604.137 201.45 597.737 197.95C591.337 194.45 586.337 189.45 582.737 182.95C579.137 176.45 577.337 168.85 577.337 160.15C577.337 151.45 579.087 143.85 582.587 137.35C586.187 130.85 591.187 125.85 597.587 122.35C603.987 118.85 611.337 117.1 619.637 117.1C627.737 117.1 634.937 118.8 641.237 122.2C647.537 125.6 652.437 130.45 655.937 136.75C659.537 143.05 661.337 150.4 661.337 158.8ZM635.087 152.05C635.087 147.65 633.587 144.15 630.587 141.55C627.587 138.95 623.837 137.65 619.337 137.65C615.037 137.65 611.387 138.9 608.387 141.4C605.487 143.9 603.687 147.45 602.987 152.05H635.087ZM725.868 117.4C735.668 117.4 743.468 120.6 749.268 127C755.168 133.3 758.118 142 758.118 153.1V202H732.618V156.55C732.618 150.95 731.168 146.6 728.268 143.5C725.368 140.4 721.468 138.85 716.568 138.85C711.668 138.85 707.768 140.4 704.868 143.5C701.968 146.6 700.518 150.95 700.518 156.55V202H674.868V118.3H700.518V129.4C703.118 125.7 706.618 122.8 711.018 120.7C715.418 118.5 720.368 117.4 725.868 117.4ZM770.843 160C770.843 151.4 772.443 143.85 775.643 137.35C778.943 130.85 783.393 125.85 788.993 122.35C794.593 118.85 800.843 117.1 807.743 117.1C813.243 117.1 818.243 118.25 822.743 120.55C827.343 122.85 830.943 125.95 833.543 129.85V91H859.193V202H833.543V190C831.143 194 827.693 197.2 823.193 199.6C818.793 202 813.643 203.2 807.743 203.2C800.843 203.2 794.593 201.45 788.993 197.95C783.393 194.35 778.943 189.3 775.643 182.8C772.443 176.2 770.843 168.6 770.843 160ZM833.543 160.15C833.543 153.75 831.743 148.7 828.143 145C824.643 141.3 820.343 139.45 815.243 139.45C810.143 139.45 805.793 141.3 802.193 145C798.693 148.6 796.943 153.6 796.943 160C796.943 166.4 798.693 171.5 802.193 175.3C805.793 179 810.143 180.85 815.243 180.85C820.343 180.85 824.643 179 828.143 175.3C831.743 171.6 833.543 166.55 833.543 160.15ZM956.649 158.8C956.649 161.2 956.499 163.7 956.199 166.3H898.149C898.549 171.5 900.199 175.5 903.099 178.3C906.099 181 909.749 182.35 914.049 182.35C920.449 182.35 924.899 179.65 927.399 174.25H954.699C953.299 179.75 950.749 184.7 947.049 189.1C943.449 193.5 938.899 196.95 933.399 199.45C927.899 201.95 921.749 203.2 914.949 203.2C906.749 203.2 899.449 201.45 893.049 197.95C886.649 194.45 881.649 189.45 878.049 182.95C874.449 176.45 872.649 168.85 872.649 160.15C872.649 151.45 874.399 143.85 877.899 137.35C881.499 130.85 886.499 125.85 892.899 122.35C899.299 118.85 906.649 117.1 914.949 117.1C923.049 117.1 930.249 118.8 936.549 122.2C942.849 125.6 947.749 130.45 951.249 136.75C954.849 143.05 956.649 150.4 956.649 158.8ZM930.399 152.05C930.399 147.65 928.899 144.15 925.899 141.55C922.899 138.95 919.149 137.65 914.649 137.65C910.349 137.65 906.699 138.9 903.699 141.4C900.799 143.9 898.999 147.45 898.299 152.05H930.399ZM1021.18 117.4C1030.98 117.4 1038.78 120.6 1044.58 127C1050.48 133.3 1053.43 142 1053.43 153.1V202H1027.93V156.55C1027.93 150.95 1026.48 146.6 1023.58 143.5C1020.68 140.4 1016.78 138.85 1011.88 138.85C1006.98 138.85 1003.08 140.4 1000.18 143.5C997.281 146.6 995.831 150.95 995.831 156.55V202H970.181V118.3H995.831V129.4C998.431 125.7 1001.93 122.8 1006.33 120.7C1010.73 118.5 1015.68 117.4 1021.18 117.4Z" fill="#2C2E2F"/>
</svg>
