<svg width="300" height="70" viewBox="0 0 300 70" fill="none" xmlns="http://www.w3.org/2000/svg">
<rect width="300" height="70" rx="35" fill="#1E88E5"/>
<path d="M91.689 45.21C90.149 45.21 88.769 44.96 87.549 44.46C86.329 43.96 85.349 43.22 84.609 42.24C83.889 41.26 83.509 40.08 83.469 38.7H88.929C89.009 39.48 89.279 40.08 89.739 40.5C90.199 40.9 90.799 41.1 91.539 41.1C92.299 41.1 92.899 40.93 93.339 40.59C93.779 40.23 93.999 39.74 93.999 39.12C93.999 38.6 93.819 38.17 93.459 37.83C93.119 37.49 92.689 37.21 92.169 36.99C91.669 36.77 90.949 36.52 90.009 36.24C88.649 35.82 87.539 35.4 86.679 34.98C85.819 34.56 85.079 33.94 84.459 33.12C83.839 32.3 83.529 31.23 83.529 29.91C83.529 27.95 84.239 26.42 85.659 25.32C87.079 24.2 88.929 23.64 91.209 23.64C93.529 23.64 95.399 24.2 96.819 25.32C98.239 26.42 98.999 27.96 99.099 29.94H93.549C93.509 29.26 93.259 28.73 92.799 28.35C92.339 27.95 91.749 27.75 91.029 27.75C90.409 27.75 89.909 27.92 89.529 28.26C89.149 28.58 88.959 29.05 88.959 29.67C88.959 30.35 89.279 30.88 89.919 31.26C90.559 31.64 91.559 32.05 92.919 32.49C94.279 32.95 95.379 33.39 96.219 33.81C97.079 34.23 97.819 34.84 98.439 35.64C99.059 36.44 99.369 37.47 99.369 38.73C99.369 39.93 99.059 41.02 98.439 42C97.839 42.98 96.959 43.76 95.799 44.34C94.639 44.92 93.269 45.21 91.689 45.21ZM107.656 30.63C108.156 29.85 108.846 29.22 109.726 28.74C110.606 28.26 111.636 28.02 112.816 28.02C114.196 28.02 115.446 28.37 116.566 29.07C117.686 29.77 118.566 30.77 119.206 32.07C119.866 33.37 120.196 34.88 120.196 36.6C120.196 38.32 119.866 39.84 119.206 41.16C118.566 42.46 117.686 43.47 116.566 44.19C115.446 44.89 114.196 45.24 112.816 45.24C111.656 45.24 110.626 45 109.726 44.52C108.846 44.04 108.156 43.42 107.656 42.66V52.98H102.526V28.26H107.656V30.63ZM114.976 36.6C114.976 35.32 114.616 34.32 113.896 33.6C113.196 32.86 112.326 32.49 111.286 32.49C110.266 32.49 109.396 32.86 108.676 33.6C107.976 34.34 107.626 35.35 107.626 36.63C107.626 37.91 107.976 38.92 108.676 39.66C109.396 40.4 110.266 40.77 111.286 40.77C112.306 40.77 113.176 40.4 113.896 39.66C114.616 38.9 114.976 37.88 114.976 36.6ZM138.667 36.36C138.667 36.84 138.637 37.34 138.577 37.86H126.967C127.047 38.9 127.377 39.7 127.957 40.26C128.557 40.8 129.287 41.07 130.147 41.07C131.427 41.07 132.317 40.53 132.817 39.45H138.277C137.997 40.55 137.487 41.54 136.747 42.42C136.027 43.3 135.117 43.99 134.017 44.49C132.917 44.99 131.687 45.24 130.327 45.24C128.687 45.24 127.227 44.89 125.947 44.19C124.667 43.49 123.667 42.49 122.947 41.19C122.227 39.89 121.867 38.37 121.867 36.63C121.867 34.89 122.217 33.37 122.917 32.07C123.637 30.77 124.637 29.77 125.917 29.07C127.197 28.37 128.667 28.02 130.327 28.02C131.947 28.02 133.387 28.36 134.647 29.04C135.907 29.72 136.887 30.69 137.587 31.95C138.307 33.21 138.667 34.68 138.667 36.36ZM133.417 35.01C133.417 34.13 133.117 33.43 132.517 32.91C131.917 32.39 131.167 32.13 130.267 32.13C129.407 32.13 128.677 32.38 128.077 32.88C127.497 33.38 127.137 34.09 126.997 35.01H133.417ZM151.574 28.08C153.534 28.08 155.094 28.72 156.254 30C157.434 31.26 158.024 33 158.024 35.22V45H152.924V35.91C152.924 34.79 152.634 33.92 152.054 33.3C151.474 32.68 150.694 32.37 149.714 32.37C148.734 32.37 147.954 32.68 147.374 33.3C146.794 33.92 146.504 34.79 146.504 35.91V45H141.374V28.26H146.504V30.48C147.024 29.74 147.724 29.16 148.604 28.74C149.484 28.3 150.474 28.08 151.574 28.08ZM160.569 36.6C160.569 34.88 160.889 33.37 161.529 32.07C162.189 30.77 163.079 29.77 164.199 29.07C165.319 28.37 166.569 28.02 167.949 28.02C169.049 28.02 170.049 28.25 170.949 28.71C171.869 29.17 172.589 29.79 173.109 30.57V22.8H178.239V45H173.109V42.6C172.629 43.4 171.939 44.04 171.039 44.52C170.159 45 169.129 45.24 167.949 45.24C166.569 45.24 165.319 44.89 164.199 44.19C163.079 43.47 162.189 42.46 161.529 41.16C160.889 39.84 160.569 38.32 160.569 36.6ZM173.109 36.63C173.109 35.35 172.749 34.34 172.029 33.6C171.329 32.86 170.469 32.49 169.449 32.49C168.429 32.49 167.559 32.86 166.839 33.6C166.139 34.32 165.789 35.32 165.789 36.6C165.789 37.88 166.139 38.9 166.839 39.66C167.559 40.4 168.429 40.77 169.449 40.77C170.469 40.77 171.329 40.4 172.029 39.66C172.749 38.92 173.109 37.91 173.109 36.63ZM197.73 36.36C197.73 36.84 197.7 37.34 197.64 37.86H186.03C186.11 38.9 186.44 39.7 187.02 40.26C187.62 40.8 188.35 41.07 189.21 41.07C190.49 41.07 191.38 40.53 191.88 39.45H197.34C197.06 40.55 196.55 41.54 195.81 42.42C195.09 43.3 194.18 43.99 193.08 44.49C191.98 44.99 190.75 45.24 189.39 45.24C187.75 45.24 186.29 44.89 185.01 44.19C183.73 43.49 182.73 42.49 182.01 41.19C181.29 39.89 180.93 38.37 180.93 36.63C180.93 34.89 181.28 33.37 181.98 32.07C182.7 30.77 183.7 29.77 184.98 29.07C186.26 28.37 187.73 28.02 189.39 28.02C191.01 28.02 192.45 28.36 193.71 29.04C194.97 29.72 195.95 30.69 196.65 31.95C197.37 33.21 197.73 34.68 197.73 36.36ZM192.48 35.01C192.48 34.13 192.18 33.43 191.58 32.91C190.98 32.39 190.23 32.13 189.33 32.13C188.47 32.13 187.74 32.38 187.14 32.88C186.56 33.38 186.2 34.09 186.06 35.01H192.48ZM210.636 28.08C212.596 28.08 214.156 28.72 215.316 30C216.496 31.26 217.086 33 217.086 35.22V45H211.986V35.91C211.986 34.79 211.696 33.92 211.116 33.3C210.536 32.68 209.756 32.37 208.776 32.37C207.796 32.37 207.016 32.68 206.436 33.3C205.856 33.92 205.566 34.79 205.566 35.91V45H200.436V28.26H205.566V30.48C206.086 29.74 206.786 29.16 207.666 28.74C208.546 28.3 209.536 28.08 210.636 28.08Z" fill="white"/>
</svg>
