<svg id="visual" viewBox="0 0 900 200" width="900" height="200" xmlns="http://www.w3.org/2000/svg" xmlns:xlink="http://www.w3.org/1999/xlink" version="1.1"><path d="M0 118L25 115.8C50 113.7 100 109.3 150 111C200 112.7 250 120.3 300 128.2C350 136 400 144 450 130.8C500 117.7 550 83.3 600 65C650 46.7 700 44.3 750 52C800 59.7 850 77.3 875 86.2L900 95L900 201L875 201C850 201 800 201 750 201C700 201 650 201 600 201C550 201 500 201 450 201C400 201 350 201 300 201C250 201 200 201 150 201C100 201 50 201 25 201L0 201Z" fill="#0d47a1" stroke-linecap="round" stroke-linejoin="miter"></path></svg>