<svg id="visual" viewBox="0 0 900 200" width="900" height="200" xmlns="http://www.w3.org/2000/svg" xmlns:xlink="http://www.w3.org/1999/xlink" version="1.1"><path d="M0 112L25 99.2C50 86.3 100 60.7 150 68.5C200 76.3 250 117.7 300 130.5C350 143.3 400 127.7 450 106.3C500 85 550 58 600 50.2C650 42.3 700 53.7 750 61.8C800 70 850 75 875 77.5L900 80L900 0L875 0C850 0 800 0 750 0C700 0 650 0 600 0C550 0 500 0 450 0C400 0 350 0 300 0C250 0 200 0 150 0C100 0 50 0 25 0L0 0Z" fill="#0d47a1" stroke-linecap="round" stroke-linejoin="miter"></path></svg>