<svg id="visual" viewBox="0 0 900 200" width="900" height="200" xmlns="http://www.w3.org/2000/svg" xmlns:xlink="http://www.w3.org/1999/xlink" version="1.1"><path d="M0 130L25 117.2C50 104.3 100 78.7 150 71.7C200 64.7 250 76.3 300 86.3C350 96.3 400 104.7 450 113.3C500 122 550 131 600 130C650 129 700 118 750 109.5C800 101 850 95 875 92L900 89L900 0L875 0C850 0 800 0 750 0C700 0 650 0 600 0C550 0 500 0 450 0C400 0 350 0 300 0C250 0 200 0 150 0C100 0 50 0 25 0L0 0Z" fill="#1e88e5" stroke-linecap="round" stroke-linejoin="miter"></path></svg>