<svg id="visual" viewBox="0 0 900 200" width="900" height="200" xmlns="http://www.w3.org/2000/svg" xmlns:xlink="http://www.w3.org/1999/xlink" version="1.1"><path d="M0 67L25 62.3C50 57.7 100 48.3 150 47.5C200 46.7 250 54.3 300 69.3C350 84.3 400 106.7 450 110.8C500 115 550 101 600 90.2C650 79.3 700 71.7 750 66.5C800 61.3 850 58.7 875 57.3L900 56L900 201L875 201C850 201 800 201 750 201C700 201 650 201 600 201C550 201 500 201 450 201C400 201 350 201 300 201C250 201 200 201 150 201C100 201 50 201 25 201L0 201Z" fill="#7366be" stroke-linecap="round" stroke-linejoin="miter"></path></svg>