<svg id="visual" viewBox="0 0 900 200" width="900" height="200" xmlns="http://www.w3.org/2000/svg" xmlns:xlink="http://www.w3.org/1999/xlink" version="1.1"><path d="M0 33L25 38C50 43 100 53 150 53.3C200 53.7 250 44.3 300 49.7C350 55 400 75 450 88.8C500 102.7 550 110.3 600 114.7C650 119 700 120 750 117.7C800 115.3 850 109.7 875 106.8L900 104L900 0L875 0C850 0 800 0 750 0C700 0 650 0 600 0C550 0 500 0 450 0C400 0 350 0 300 0C250 0 200 0 150 0C100 0 50 0 25 0L0 0Z" fill="#7366be" stroke-linecap="round" stroke-linejoin="miter"></path></svg>